<svg xmlns="http://www.w3.org/2000/svg" viewBox="0 0 89.9414 74.0617">
  <defs>
    <style>
      .cls-1 {
        fill: #0c0912;
      }

      .cls-2 {
        fill: #e566ff;
      }
    </style>
  </defs>
  <title>Asset 1</title>
  <g id="Layer_2" data-name="Layer 2">
    <g id="Das">
      <rect id="the_magic_carpet" data-name="the magic carpet" class="cls-1" width="89.9414" height="74.0617"/>
      <path id="Ding" class="cls-2" d="M53.4,61.873c12.3764,14.9323,45.2226,1.1011,34.31,7.1037C64.6772,86.1273,8.1652,19.29,9.2551,74.0617c-8.6163-5.2088,2.916-23.73,10.5106-31.9521C13.663,40.9478,5.8392,43.4554,0,49.687,19.7656,22.9107,9.9159,69.2587,49.0353,0,39.358,36.8673,10.3882,35.13,37.4779,46.0219,52.68,64.1552,72.5431,64.304,89.9414,47.56,88.4953,58.1553,64.9613,63.1916,53.4,61.873ZM12.7189,54.3862c9.2624-7.8917,21.45-2.0389,32.544,2.8208C35.9352,49.5112,23.4739,31.7534,12.7189,54.3862Z"/>
    </g>
  </g>
</svg>
